# AST/ASF file generated using VICON BodyLanguage
# -----------------------------------------------
:version 1.10
:name VICON
:units
  mass 1.0
  length 0.45
  angle deg
:documentation
   .ast/.asf automatically generated from VICON data using
   VICON BodyBuilder and BodyLanguage model FoxedUp or BRILLIANT.MOD
:root
   order TX TY TZ RX RY RZ
   axis XYZ
   position 0 0 0  
   orientation 0 0 0 
:bonedata
  begin
     id 1 
     name lhipjoint
     direction 0.578396 -0.714046 0.394458 
     length 2.21935 
     axis 0 0 0  XYZ
  end
  begin
     id 2 
     name lfemur
     direction 0.34202 -0.939693 0  
     length 6.39105  
     axis 0 0 20  XYZ
    dof rx ry rz
    limits (-160.0 20.0)
           (-70.0 70.0)
           (-60.0 70.0)
  end
  begin
     id 3 
     name ltibia
     direction 0.34202 -0.939693 0   
     length 6.99037   
     axis 0 0 20   XYZ
    dof rx
    limits (-10.0 170.0)
  end
  begin
     id 4 
     name lfoot
     direction 0.0582372 -0.160005 0.985397   
     length 2.06111   
     axis -90 7.62852e-016 20   XYZ
    dof rx rz
    limits (-45.0 90.0)
           (-70.0 20.0)
  end
  begin
     id 5 
     name ltoes
     direction 1.53556e-011 -4.21875e-011 1   
     length 1.04074   
     axis -90 7.62852e-016 20   XYZ
    dof rx
    limits (-90.0 20.0)
  end
  begin
     id 6 
     name rhipjoint
     direction -0.558179 -0.726269 0.40121   
     length 2.182  
     axis 0 0 0  XYZ 
  end
  begin
     id 7 
     name rfemur
     direction -0.34202 -0.939693 0   
     length 6.51172   
     axis 0 0 -20   XYZ
    dof rx ry rz
    limits (-160.0 20.0)
           (-70.0 70.0)
           (-70.0 60.0)
  end
  begin
     id 8 
     name rtibia
     direction -0.34202 -0.939693 0   
     length 7.02607   
     axis 0 0 -20   XYZ
    dof rx
    limits (-10.0 170.0)
 end
 begin
     id 9 
     name rfoot
     direction -0.0788856 -0.216737 0.973038   
     length 1.96734  
     axis -90 -7.62852e-016 -20   XYZ
    dof rx rz
    limits (-45.0 90.0)
           (-20.0 70.0)
  end
  begin
     id 10 
     name rtoes
     direction -1.53567e-011 -4.21783e-011 1   
     length 0.990825   
     axis -90 -7.62852e-016 -20   XYZ
    dof rx
    limits (-90.0 20.0)
  end
  begin
     id 11 
     name lowerback
     direction 0.00668177 0.999323 -0.0361741   
     length 1.7655   
     axis 0 0 0   XYZ
    dof rx ry rz
    limits (-20.0 45.0)
           (-30.0 30.0)
           (-30.0 30.0)
  end
  begin
     id 12 
     name upperback
     direction -0.00222086 0.99851 0.0545167   
     length 1.74912   
     axis 0 0 0   XYZ
    dof rx ry rz
    limits (-20.0 45.0)
           (-30.0 30.0)
           (-30.0 30.0)
  end
  begin
     id 13 
     name thorax
     direction -0.00733971 0.997496 0.0703443   
     length 1.75715   
     axis 0 0 0   XYZ
    dof rx ry rz
    limits (-20.0 45.0)
           (-30.0 30.0)
           (-30.0 30.0)
  end
  begin
     id 14 
     name lowerneck
     direction 0.0279797 0.994795 0.0979765   
     length 1.46939   
     axis 0 0 0   XYZ
    dof rx ry rz
    limits (-20.0 45.0)
           (-30.0 30.0)
           (-30.0 30.0)
  end
  begin
     id 15 
     name upperneck
     direction 0.00339187 0.976776 -0.214238   
     length 1.48018   
     axis 0 0 0   XYZ
    dof rx ry rz
    limits (-20.0 45.0)
           (-30.0 30.0)
           (-30.0 30.0)
  end
  begin
     id 16
     name head
     direction -0.00263506 0.996603 -0.0823096  
     length 1.4976  
     axis 0 0 0   XYZ
    dof rx ry rz
    limits (-20.0 45.0)
           (-30.0 30.0)
           (-30.0 30.0)
  end
  begin
     id 17 
     name lclavicle
     direction 0.894044 0.44508 -0.0508781  
     length 3.03024  
     axis 0 0 0   XYZ
    dof ry rz
    limits (-20.0 10.0)
           (0.0 20.0)
  end
  begin
     id 18 
     name lhumerus
     direction 1 -4.48961e-011 -2.39475e-018   
     length 4.4661   
     axis 180 -30 -90   XYZ
    dof rx ry rz
    limits (-60.0 90.0)
           (-90.0 90.0)
           (-90.0 90.0)
  end
  begin
     id 19
     name lradius
     direction 1 -4.48961e-011 9.29328e-028   
     length 3.41414   
     axis 180 -30 -90   XYZ
    dof rx
    limits (-10.0 170.0)
  end
  begin
     id 20
     name lwrist
     direction 1 -4.48985e-011 1.53461e-026   
     length 1.70707   
     axis -1.09697e-014 90 90   XYZ
    dof ry
    limits (-180.0 0.0)
 end
  begin
     id 21 
     name lhand
     direction 1 -4.48966e-011 3.06923e-026   
     length 0.328298   
     axis -1.95843e-014 90 90   XYZ
    dof rx rz
    limits (-90.0 90.0)
           (-45.0 45.0)
  end
  begin
     id 22 
     name lfingers
     direction 1 -4.48893e-011 6.13845e-026   
     length 0.264682   
     axis -3.91686e-014 90 90   XYZ
    dof rx
    limits (0.0 90.0)
  end
  begin
     id 23
     name lthumb
     direction 0.707107 -6.34876e-011 0.707107   
     length 0.380032   
     axis -90 45 2.85299e-015   XYZ
    dof rx rz
    limits (-45.0 45.0)
           (-45.0 45.0)
  end
  begin
     id 24 
     name rclavicle
     direction -0.936955 0.347862 -0.0332887   
     length 3.26927  
     axis 0 0 0   XYZ 
    dof ry rz
    limits (-10.0 20.0)
           (-20.0 0.0)
  end
  begin
     id 25 
     name rhumerus
     direction -1 -4.4896e-011 1.78637e-018  
     length 4.40431   
     axis 180 30 90   XYZ
    dof rx ry rz
    limits (-90.0 60.0)
           (-90.0 90.0)
           (-90.0 90.0)
  end
  begin
     id 26 
     name rradius
     direction -1 -4.48955e-011 9.34036e-027   
     length 3.04688   
     axis 180 30 90   XYZ
    dof rx
    limits (-10.0 170.0)
  end
  begin
     id 27 
     name rwrist
     direction -1 -4.49011e-011 1.53461e-026   
     length 1.52344   
     axis -1.09697e-014 -90 -90   XYZ
    dof ry
    limits (-180.0 0.0)
  end
  begin
     id 28
     name rhand
     direction -1 -4.48834e-011 3.06923e-026   
     length 0.500489   
     axis -1.95843e-014 -90 -90   XYZ
    dof rx rz
    limits (-90.0 90.0)
           (-45.0 45.0)
  end
  begin
     id 29
     name rfingers
     direction -1 -4.48967e-011 6.13845e-026   
     length 0.403507   
     axis -3.91686e-014 -90 -90   XYZ
    dof rx
    limits (0.0 90.0)
  end
  begin
     id 30
     name rthumb
     direction -0.707107 -6.34826e-011 0.707107   
     length 0.579358   
     axis -90 -45 -2.85299e-015   XYZ
    dof rx rz
    limits (-45.0 45.0)
           (-45.0 45.0)
  end
:hierarchy
  begin
    root lhipjoint rhipjoint lowerback
    lhipjoint lfemur
    lfemur ltibia
    ltibia lfoot
    lfoot ltoes
    rhipjoint rfemur
    rfemur rtibia
    rtibia rfoot
    rfoot rtoes
    lowerback upperback
    upperback thorax
    thorax lowerneck lclavicle rclavicle
    lowerneck upperneck
    upperneck head
    lclavicle lhumerus
    lhumerus lradius
    lradius lwrist
    lwrist lhand lthumb
    lhand lfingers
    rclavicle rhumerus
    rhumerus rradius
    rradius rwrist
    rwrist rhand rthumb
    rhand rfingers
  end

#!OML:ASF H:\IndianDance\Patient Classification 1\Patient 1\Session 1\dancer.ASF
:FULLY-SPECIFIED
:DEGREES
1671
root 24.385 14.6876 2.10895 -173.321 37.4515 -175.648
lowerback 6.38117 0.347575 1.28477
upperback -12.4648 0.94299 -7.38681
thorax -17.7222 0.0139718 -9.73475
lowerneck -9.01247 -14.9786 -9.47321
upperneck -3.20673 -18.7703 6.38789
head 2.08821 -8.98355 2.55262
rclavicle 2.46493e-014 -4.77083e-014
rhumerus 44.0331 -35.8224 -12.5138
rradius 88.7635
rwrist -47.1309
rhand -39.7956 24.1867
rfingers 7.12502
rthumb -12.7708 -5.40274
lclavicle 2.46493e-014 -4.77083e-014
lhumerus 1.9907 -1.79291 -20.8544
lradius 29.3157
lwrist -2.26782
lhand 4.53081 7.74194
lfingers 7.12502
lthumb 29.9223 35.3432
rfemur -209.678 188.793 186.89
rtibia 26.8521
rfoot -20.1539 -386.36
rtoes 3.81086
lfemur -8.2893 -3.27929 -4.30171
ltibia 36.6457
lfoot -23.3988 16.4078
ltoes 7.7092
1672
root 24.5355 14.7055 2.14394 -173.109 37.8872 -175.597
lowerback 6.1954 0.41772 1.09672
upperback -12.6125 1.03695 -7.43754
thorax -17.7722 0.0848183 -9.7128
lowerneck -9.16805 -14.9307 -9.42062
upperneck -3.37609 -18.6681 6.22447
head 2.02437 -8.92479 2.49892
rclavicle 7.15625e-015 -4.77083e-014
rhumerus 42.8767 -35.9789 -11.476
rradius 90.5959
rwrist -44.5703
rhand -40.9873 26.1843
rfingers 7.12502
rthumb -13.9194 -3.3298
lclavicle 7.15625e-015 -4.77083e-014
lhumerus 1.83638 -1.49762 -20.9236
lradius 29.3439
lwrist -2.70473
lhand 4.43288 7.49876
lfingers 7.12502
lthumb 29.8289 35.1169
rfemur -210.606 189.797 187.834
rtibia 27.976
rfoot -19.7603 -385.446
rtoes 2.43243
lfemur -7.90624 -3.92596 -4.48117
ltibia 36.2791
lfoot -23.3748 16.6471
ltoes 8.55962
1673
root 24.6766 14.718 2.17924 -173.013 38.3911 -175.64
lowerback 6.07571 0.491777 0.831139
upperback -12.7277 1.11817 -7.47414
thorax -17.8265 0.159492 -9.62609
lowerneck -9.3375 -14.8541 -9.37423
upperneck -3.55299 -18.5261 6.09646
head 1.96294 -8.84515 2.46016
rclavicle 9.85972e-014 -3.18055e-015
rhumerus 41.4357 -35.9299 -10.357
rradius 92.4713
rwrist -41.9565
rhand -42.0822 28.1388
rfingers 7.12502
rthumb -14.9744 -1.29986
lclavicle 9.85972e-014 -3.18055e-015
lhumerus 1.57509 -1.41874 -21.0422
lradius 29.3204
lwrist -3.10992
lhand 4.35574 7.29272
lfingers 7.12502
lthumb 29.7553 34.924
rfemur -211.466 190.687 188.659
rtibia 29.1018
rfoot -19.516 -384.598
rtoes 1.31162
lfemur -7.66679 -4.13646 -4.87125
ltibia 36.2553
lfoot -23.4772 16.743
ltoes 8.51647
1674
root 24.8082 14.7274 2.21496 -173.039 38.9486 -175.776
lowerback 6.03746 0.568075 0.499441
upperback -12.8119 1.1849 -7.49822
thorax -17.8985 0.234532 -9.48506
lowerneck -9.50738 -14.7567 -9.349
upperneck -3.73558 -18.3555 6.00719
head 1.90495 -8.75044 2.43936
rclavicle 5.1684e-014 -6.99722e-014
rhumerus 39.7459 -35.6409 -9.1772
rradius 94.3785
rwrist -39.2874
rhand -43.0428 30.0238
rfingers 7.12502
rthumb -15.8996 0.656484
lclavicle 5.1684e-014 -6.99722e-014
lhumerus 1.22954 -1.5211 -21.1974
lradius 29.237
lwrist -3.48884
lhand 4.29272 7.11762
lfingers 7.12502
lthumb 29.6951 34.7597
rfemur -212.213 191.406 189.342
rtibia 30.1677
rfoot -19.36 -383.872
rtoes 0.399208
lfemur -7.59714 -3.81286 -5.46665
ltibia 36.5925
lfoot -23.6672 16.6797
ltoes 7.57963
1675
root 24.9304 14.7353 2.25104 -173.179 39.5351 -175.997
lowerback 6.08942 0.641805 0.1204
upperback -12.8697 1.23261 -7.51048
thorax -18.0018 0.304546 -9.30275
lowerneck -9.67011 -14.6409 -9.32489
upperneck -3.93139 -18.1608 5.9291
head 1.84135 -8.64368 2.42536
rclavicle 1.35174e-014 -1.39944e-013
rhumerus 37.882 -35.0828 -7.99544
rradius 96.284
rwrist -36.5559
rhand -43.8019 31.8948
rfingers 7.12502
rthumb -16.6305 2.58725
lclavicle 1.35174e-014 -1.39944e-013
lhumerus 0.810373 -1.78557 -21.3718
lradius 29.1103
lwrist -3.81148
lhand 4.25962 7.01727
lfingers 7.12502
lthumb 29.6635 34.6649
rfemur -212.838 191.969 189.882
rtibia 31.1371
rfoot -19.2363 -383.246
rtoes -0.393206
lfemur -7.72139 -2.94165 -6.25956
ltibia 37.2863
lfoot -23.9418 16.4254
ltoes 6.01295
1676
root 25.0437 14.7427 2.28756 -173.414 40.1186 -176.278
lowerback 6.2332 0.709836 -0.273023
upperback -12.9012 1.26067 -7.51027
thorax -18.138 0.364605 -9.09795
lowerneck -9.81593 -14.5197 -9.31333
upperneck -4.14733 -17.9589 5.86117
head 1.77033 -8.53304 2.41887
rclavicle 5.56597e-014 0
rhumerus 35.9079 -34.2354 -6.8452
rradius 98.1401
rwrist -33.7276
rhand -44.3843 33.6581
rfingers 7.12502
rthumb -17.1911 4.39855
lclavicle 5.56597e-014 0
lhumerus 0.342004 -2.03402 -21.4979
lradius 28.9262
lwrist -4.18543
lhand 4.26397 6.94414
lfingers 7.12502
lthumb 29.6677 34.5911
rfemur -213.332 192.395 190.302
rtibia 31.9951
rfoot -19.1392 -382.684
rtoes -1.15686
lfemur -8.05081 -1.574 -7.22332
ltibia 38.309
lfoot -24.2672 15.9613
ltoes 4.08808
1677
root 25.1485 14.7499 2.32438 -173.697 40.6669 -176.558
lowerback 6.45852 0.771418 -0.628593
upperback -12.9063 1.27543 -7.48891
thorax -18.2983 0.411344 -8.89039
lowerneck -9.95459 -14.4042 -9.30915
upperneck -4.37513 -17.764 5.78382
head 1.69448 -8.42571 2.4107
rclavicle -3.65764e-014 4.77083e-014
rhumerus 33.8637 -33.0871 -5.74661
rradius 99.908
rwrist -30.7744
rhand -44.837 35.321
rfingers 7.12502
rthumb -17.6268 6.10004
lclavicle -3.65764e-014 4.77083e-014
lhumerus -0.16811 -2.22577 -21.5476
lradius 28.7061
lwrist -4.57109
lhand 4.31207 6.89307
lfingers 7.12502
lthumb 29.7136 34.5318
rfemur -213.707 192.724 190.663
rtibia 32.7495
rfoot -19.0914 -382.143
rtoes -1.92957
lfemur -8.58839 0.192136 -8.30821
ltibia 39.6181
lfoot -24.6138 15.3326
ltoes 2.16276
